<?xml version="1.0" encoding="utf-8" standalone="no"?>
<!DOCTYPE svg PUBLIC "-//W3C//DTD SVG 1.1//EN"
  "http://www.w3.org/Graphics/SVG/1.1/DTD/svg11.dtd">
<svg xmlns:xlink="http://www.w3.org/1999/xlink" width="288pt" height="288pt" viewBox="0 0 288 288" xmlns="http://www.w3.org/2000/svg" version="1.1">
 <metadata>
  <rdf:RDF xmlns:dc="http://purl.org/dc/elements/1.1/" xmlns:cc="http://creativecommons.org/ns#" xmlns:rdf="http://www.w3.org/1999/02/22-rdf-syntax-ns#">
   <cc:Work>
    <dc:type rdf:resource="http://purl.org/dc/dcmitype/StillImage"/>
    <dc:date>2025-11-04T17:23:59.716331</dc:date>
    <dc:format>image/svg+xml</dc:format>
    <dc:creator>
     <cc:Agent>
      <dc:title>Matplotlib v3.10.0, https://matplotlib.org/</dc:title>
     </cc:Agent>
    </dc:creator>
   </cc:Work>
  </rdf:RDF>
 </metadata>
 <defs>
  <style type="text/css">*{stroke-linejoin: round; stroke-linecap: butt}</style>
 </defs>
 <g id="figure_1">
  <g id="patch_1">
   <path d="M 0 288 
L 288 288 
L 288 0 
L 0 0 
z
" style="fill: #ffffff"/>
  </g>
  <g id="axes_1">
   <g id="patch_2">
    <path d="M 55.788667 277.2 
L 277.2 277.2 
L 277.2 114.15349 
L 55.788667 114.15349 
z
" style="fill: #ffffff"/>
   </g>
   <g id="matplotlib.axis_1">
    <g id="xtick_1">
     <g id="line2d_1">
      <defs>
       <path id="maad3738796" d="M 0 0 
L 0 3.5 
" style="stroke: #000000; stroke-width: 0.8"/>
      </defs>
      <g>
       <use xlink:href="#maad3738796" x="65.852818" y="277.2" style="stroke: #000000; stroke-width: 0.8"/>
      </g>
     </g>
    </g>
    <g id="xtick_2">
     <g id="line2d_2">
      <g>
       <use xlink:href="#maad3738796" x="112.860548" y="277.2" style="stroke: #000000; stroke-width: 0.8"/>
      </g>
     </g>
    </g>
    <g id="xtick_3">
     <g id="line2d_3">
      <g>
       <use xlink:href="#maad3738796" x="159.868277" y="277.2" style="stroke: #000000; stroke-width: 0.8"/>
      </g>
     </g>
    </g>
    <g id="xtick_4">
     <g id="line2d_4">
      <g>
       <use xlink:href="#maad3738796" x="206.876007" y="277.2" style="stroke: #000000; stroke-width: 0.8"/>
      </g>
     </g>
    </g>
    <g id="xtick_5">
     <g id="line2d_5">
      <g>
       <use xlink:href="#maad3738796" x="253.883736" y="277.2" style="stroke: #000000; stroke-width: 0.8"/>
      </g>
     </g>
    </g>
    <g id="text_1">
     <!-- Normalized Projected DOS -->
     <g transform="translate(87.475271 293.818125) scale(0.12 -0.12)">
      <defs>
       <path id="DejaVuSans-4e" d="M 628 4666 
L 1478 4666 
L 3547 763 
L 3547 4666 
L 4159 4666 
L 4159 0 
L 3309 0 
L 1241 3903 
L 1241 0 
L 628 0 
L 628 4666 
z
" transform="scale(0.015625)"/>
       <path id="DejaVuSans-6f" d="M 1959 3097 
Q 1497 3097 1228 2736 
Q 959 2375 959 1747 
Q 959 1119 1226 758 
Q 1494 397 1959 397 
Q 2419 397 2687 759 
Q 2956 1122 2956 1747 
Q 2956 2369 2687 2733 
Q 2419 3097 1959 3097 
z
M 1959 3584 
Q 2709 3584 3137 3096 
Q 3566 2609 3566 1747 
Q 3566 888 3137 398 
Q 2709 -91 1959 -91 
Q 1206 -91 779 398 
Q 353 888 353 1747 
Q 353 2609 779 3096 
Q 1206 3584 1959 3584 
z
" transform="scale(0.015625)"/>
       <path id="DejaVuSans-72" d="M 2631 2963 
Q 2534 3019 2420 3045 
Q 2306 3072 2169 3072 
Q 1681 3072 1420 2755 
Q 1159 2438 1159 1844 
L 1159 0 
L 581 0 
L 581 3500 
L 1159 3500 
L 1159 2956 
Q 1341 3275 1631 3429 
Q 1922 3584 2338 3584 
Q 2397 3584 2469 3576 
Q 2541 3569 2628 3553 
L 2631 2963 
z
" transform="scale(0.015625)"/>
       <path id="DejaVuSans-6d" d="M 3328 2828 
Q 3544 3216 3844 3400 
Q 4144 3584 4550 3584 
Q 5097 3584 5394 3201 
Q 5691 2819 5691 2113 
L 5691 0 
L 5113 0 
L 5113 2094 
Q 5113 2597 4934 2840 
Q 4756 3084 4391 3084 
Q 3944 3084 3684 2787 
Q 3425 2491 3425 1978 
L 3425 0 
L 2847 0 
L 2847 2094 
Q 2847 2600 2669 2842 
Q 2491 3084 2119 3084 
Q 1678 3084 1418 2786 
Q 1159 2488 1159 1978 
L 1159 0 
L 581 0 
L 581 3500 
L 1159 3500 
L 1159 2956 
Q 1356 3278 1631 3431 
Q 1906 3584 2284 3584 
Q 2666 3584 2933 3390 
Q 3200 3197 3328 2828 
z
" transform="scale(0.015625)"/>
       <path id="DejaVuSans-61" d="M 2194 1759 
Q 1497 1759 1228 1600 
Q 959 1441 959 1056 
Q 959 750 1161 570 
Q 1363 391 1709 391 
Q 2188 391 2477 730 
Q 2766 1069 2766 1631 
L 2766 1759 
L 2194 1759 
z
M 3341 1997 
L 3341 0 
L 2766 0 
L 2766 531 
Q 2569 213 2275 61 
Q 1981 -91 1556 -91 
Q 1019 -91 701 211 
Q 384 513 384 1019 
Q 384 1609 779 1909 
Q 1175 2209 1959 2209 
L 2766 2209 
L 2766 2266 
Q 2766 2663 2505 2880 
Q 2244 3097 1772 3097 
Q 1472 3097 1187 3025 
Q 903 2953 641 2809 
L 641 3341 
Q 956 3463 1253 3523 
Q 1550 3584 1831 3584 
Q 2591 3584 2966 3190 
Q 3341 2797 3341 1997 
z
" transform="scale(0.015625)"/>
       <path id="DejaVuSans-6c" d="M 603 4863 
L 1178 4863 
L 1178 0 
L 603 0 
L 603 4863 
z
" transform="scale(0.015625)"/>
       <path id="DejaVuSans-69" d="M 603 3500 
L 1178 3500 
L 1178 0 
L 603 0 
L 603 3500 
z
M 603 4863 
L 1178 4863 
L 1178 4134 
L 603 4134 
L 603 4863 
z
" transform="scale(0.015625)"/>
       <path id="DejaVuSans-7a" d="M 353 3500 
L 3084 3500 
L 3084 2975 
L 922 459 
L 3084 459 
L 3084 0 
L 275 0 
L 275 525 
L 2438 3041 
L 353 3041 
L 353 3500 
z
" transform="scale(0.015625)"/>
       <path id="DejaVuSans-65" d="M 3597 1894 
L 3597 1613 
L 953 1613 
Q 991 1019 1311 708 
Q 1631 397 2203 397 
Q 2534 397 2845 478 
Q 3156 559 3463 722 
L 3463 178 
Q 3153 47 2828 -22 
Q 2503 -91 2169 -91 
Q 1331 -91 842 396 
Q 353 884 353 1716 
Q 353 2575 817 3079 
Q 1281 3584 2069 3584 
Q 2775 3584 3186 3129 
Q 3597 2675 3597 1894 
z
M 3022 2063 
Q 3016 2534 2758 2815 
Q 2500 3097 2075 3097 
Q 1594 3097 1305 2825 
Q 1016 2553 972 2059 
L 3022 2063 
z
" transform="scale(0.015625)"/>
       <path id="DejaVuSans-64" d="M 2906 2969 
L 2906 4863 
L 3481 4863 
L 3481 0 
L 2906 0 
L 2906 525 
Q 2725 213 2448 61 
Q 2172 -91 1784 -91 
Q 1150 -91 751 415 
Q 353 922 353 1747 
Q 353 2572 751 3078 
Q 1150 3584 1784 3584 
Q 2172 3584 2448 3432 
Q 2725 3281 2906 2969 
z
M 947 1747 
Q 947 1113 1208 752 
Q 1469 391 1925 391 
Q 2381 391 2643 752 
Q 2906 1113 2906 1747 
Q 2906 2381 2643 2742 
Q 2381 3103 1925 3103 
Q 1469 3103 1208 2742 
Q 947 2381 947 1747 
z
" transform="scale(0.015625)"/>
       <path id="DejaVuSans-20" transform="scale(0.015625)"/>
       <path id="DejaVuSans-50" d="M 1259 4147 
L 1259 2394 
L 2053 2394 
Q 2494 2394 2734 2622 
Q 2975 2850 2975 3272 
Q 2975 3691 2734 3919 
Q 2494 4147 2053 4147 
L 1259 4147 
z
M 628 4666 
L 2053 4666 
Q 2838 4666 3239 4311 
Q 3641 3956 3641 3272 
Q 3641 2581 3239 2228 
Q 2838 1875 2053 1875 
L 1259 1875 
L 1259 0 
L 628 0 
L 628 4666 
z
" transform="scale(0.015625)"/>
       <path id="DejaVuSans-6a" d="M 603 3500 
L 1178 3500 
L 1178 -63 
Q 1178 -731 923 -1031 
Q 669 -1331 103 -1331 
L -116 -1331 
L -116 -844 
L 38 -844 
Q 366 -844 484 -692 
Q 603 -541 603 -63 
L 603 3500 
z
M 603 4863 
L 1178 4863 
L 1178 4134 
L 603 4134 
L 603 4863 
z
" transform="scale(0.015625)"/>
       <path id="DejaVuSans-63" d="M 3122 3366 
L 3122 2828 
Q 2878 2963 2633 3030 
Q 2388 3097 2138 3097 
Q 1578 3097 1268 2742 
Q 959 2388 959 1747 
Q 959 1106 1268 751 
Q 1578 397 2138 397 
Q 2388 397 2633 464 
Q 2878 531 3122 666 
L 3122 134 
Q 2881 22 2623 -34 
Q 2366 -91 2075 -91 
Q 1284 -91 818 406 
Q 353 903 353 1747 
Q 353 2603 823 3093 
Q 1294 3584 2113 3584 
Q 2378 3584 2631 3529 
Q 2884 3475 3122 3366 
z
" transform="scale(0.015625)"/>
       <path id="DejaVuSans-74" d="M 1172 4494 
L 1172 3500 
L 2356 3500 
L 2356 3053 
L 1172 3053 
L 1172 1153 
Q 1172 725 1289 603 
Q 1406 481 1766 481 
L 2356 481 
L 2356 0 
L 1766 0 
Q 1100 0 847 248 
Q 594 497 594 1153 
L 594 3053 
L 172 3053 
L 172 3500 
L 594 3500 
L 594 4494 
L 1172 4494 
z
" transform="scale(0.015625)"/>
       <path id="DejaVuSans-44" d="M 1259 4147 
L 1259 519 
L 2022 519 
Q 2988 519 3436 956 
Q 3884 1394 3884 2338 
Q 3884 3275 3436 3711 
Q 2988 4147 2022 4147 
L 1259 4147 
z
M 628 4666 
L 1925 4666 
Q 3281 4666 3915 4102 
Q 4550 3538 4550 2338 
Q 4550 1131 3912 565 
Q 3275 0 1925 0 
L 628 0 
L 628 4666 
z
" transform="scale(0.015625)"/>
       <path id="DejaVuSans-4f" d="M 2522 4238 
Q 1834 4238 1429 3725 
Q 1025 3213 1025 2328 
Q 1025 1447 1429 934 
Q 1834 422 2522 422 
Q 3209 422 3611 934 
Q 4013 1447 4013 2328 
Q 4013 3213 3611 3725 
Q 3209 4238 2522 4238 
z
M 2522 4750 
Q 3503 4750 4090 4092 
Q 4678 3434 4678 2328 
Q 4678 1225 4090 567 
Q 3503 -91 2522 -91 
Q 1538 -91 948 565 
Q 359 1222 359 2328 
Q 359 3434 948 4092 
Q 1538 4750 2522 4750 
z
" transform="scale(0.015625)"/>
       <path id="DejaVuSans-53" d="M 3425 4513 
L 3425 3897 
Q 3066 4069 2747 4153 
Q 2428 4238 2131 4238 
Q 1616 4238 1336 4038 
Q 1056 3838 1056 3469 
Q 1056 3159 1242 3001 
Q 1428 2844 1947 2747 
L 2328 2669 
Q 3034 2534 3370 2195 
Q 3706 1856 3706 1288 
Q 3706 609 3251 259 
Q 2797 -91 1919 -91 
Q 1588 -91 1214 -16 
Q 841 59 441 206 
L 441 856 
Q 825 641 1194 531 
Q 1563 422 1919 422 
Q 2459 422 2753 634 
Q 3047 847 3047 1241 
Q 3047 1584 2836 1778 
Q 2625 1972 2144 2069 
L 1759 2144 
Q 1053 2284 737 2584 
Q 422 2884 422 3419 
Q 422 4038 858 4394 
Q 1294 4750 2059 4750 
Q 2388 4750 2728 4690 
Q 3069 4631 3425 4513 
z
" transform="scale(0.015625)"/>
      </defs>
      <use xlink:href="#DejaVuSans-4e"/>
      <use xlink:href="#DejaVuSans-6f" transform="translate(74.804688 0)"/>
      <use xlink:href="#DejaVuSans-72" transform="translate(135.986328 0)"/>
      <use xlink:href="#DejaVuSans-6d" transform="translate(175.349609 0)"/>
      <use xlink:href="#DejaVuSans-61" transform="translate(272.761719 0)"/>
      <use xlink:href="#DejaVuSans-6c" transform="translate(334.041016 0)"/>
      <use xlink:href="#DejaVuSans-69" transform="translate(361.824219 0)"/>
      <use xlink:href="#DejaVuSans-7a" transform="translate(389.607422 0)"/>
      <use xlink:href="#DejaVuSans-65" transform="translate(442.097656 0)"/>
      <use xlink:href="#DejaVuSans-64" transform="translate(503.621094 0)"/>
      <use xlink:href="#DejaVuSans-20" transform="translate(567.097656 0)"/>
      <use xlink:href="#DejaVuSans-50" transform="translate(598.884766 0)"/>
      <use xlink:href="#DejaVuSans-72" transform="translate(657.4375 0)"/>
      <use xlink:href="#DejaVuSans-6f" transform="translate(696.300781 0)"/>
      <use xlink:href="#DejaVuSans-6a" transform="translate(757.482422 0)"/>
      <use xlink:href="#DejaVuSans-65" transform="translate(785.265625 0)"/>
      <use xlink:href="#DejaVuSans-63" transform="translate(846.789062 0)"/>
      <use xlink:href="#DejaVuSans-74" transform="translate(901.769531 0)"/>
      <use xlink:href="#DejaVuSans-65" transform="translate(940.978516 0)"/>
      <use xlink:href="#DejaVuSans-64" transform="translate(1002.501953 0)"/>
      <use xlink:href="#DejaVuSans-20" transform="translate(1065.978516 0)"/>
      <use xlink:href="#DejaVuSans-44" transform="translate(1097.765625 0)"/>
      <use xlink:href="#DejaVuSans-4f" transform="translate(1174.767578 0)"/>
      <use xlink:href="#DejaVuSans-53" transform="translate(1253.478516 0)"/>
     </g>
    </g>
   </g>
   <g id="matplotlib.axis_2">
    <g id="ytick_1">
     <g id="line2d_6">
      <defs>
       <path id="mb40506863e" d="M 0 0 
L -3.5 0 
" style="stroke: #000000; stroke-width: 0.8"/>
      </defs>
      <g>
       <use xlink:href="#mb40506863e" x="55.788667" y="277.2" style="stroke: #000000; stroke-width: 0.8"/>
      </g>
     </g>
     <g id="text_2">
      <!-- 0 -->
      <g transform="translate(42.426167 280.999219) scale(0.1 -0.1)">
       <defs>
        <path id="DejaVuSans-30" d="M 2034 4250 
Q 1547 4250 1301 3770 
Q 1056 3291 1056 2328 
Q 1056 1369 1301 889 
Q 1547 409 2034 409 
Q 2525 409 2770 889 
Q 3016 1369 3016 2328 
Q 3016 3291 2770 3770 
Q 2525 4250 2034 4250 
z
M 2034 4750 
Q 2819 4750 3233 4129 
Q 3647 3509 3647 2328 
Q 3647 1150 3233 529 
Q 2819 -91 2034 -91 
Q 1250 -91 836 529 
Q 422 1150 422 2328 
Q 422 3509 836 4129 
Q 1250 4750 2034 4750 
z
" transform="scale(0.015625)"/>
       </defs>
       <use xlink:href="#DejaVuSans-30"/>
      </g>
     </g>
    </g>
    <g id="ytick_2">
     <g id="line2d_7">
      <g>
       <use xlink:href="#mb40506863e" x="55.788667" y="256.819186" style="stroke: #000000; stroke-width: 0.8"/>
      </g>
     </g>
     <g id="text_3">
      <!-- 100 -->
      <g transform="translate(29.701167 260.618405) scale(0.1 -0.1)">
       <defs>
        <path id="DejaVuSans-31" d="M 794 531 
L 1825 531 
L 1825 4091 
L 703 3866 
L 703 4441 
L 1819 4666 
L 2450 4666 
L 2450 531 
L 3481 531 
L 3481 0 
L 794 0 
L 794 531 
z
" transform="scale(0.015625)"/>
       </defs>
       <use xlink:href="#DejaVuSans-31"/>
       <use xlink:href="#DejaVuSans-30" transform="translate(63.623047 0)"/>
       <use xlink:href="#DejaVuSans-30" transform="translate(127.246094 0)"/>
      </g>
     </g>
    </g>
    <g id="ytick_3">
     <g id="line2d_8">
      <g>
       <use xlink:href="#mb40506863e" x="55.788667" y="236.438373" style="stroke: #000000; stroke-width: 0.8"/>
      </g>
     </g>
     <g id="text_4">
      <!-- 200 -->
      <g transform="translate(29.701167 240.237591) scale(0.1 -0.1)">
       <defs>
        <path id="DejaVuSans-32" d="M 1228 531 
L 3431 531 
L 3431 0 
L 469 0 
L 469 531 
Q 828 903 1448 1529 
Q 2069 2156 2228 2338 
Q 2531 2678 2651 2914 
Q 2772 3150 2772 3378 
Q 2772 3750 2511 3984 
Q 2250 4219 1831 4219 
Q 1534 4219 1204 4116 
Q 875 4013 500 3803 
L 500 4441 
Q 881 4594 1212 4672 
Q 1544 4750 1819 4750 
Q 2544 4750 2975 4387 
Q 3406 4025 3406 3419 
Q 3406 3131 3298 2873 
Q 3191 2616 2906 2266 
Q 2828 2175 2409 1742 
Q 1991 1309 1228 531 
z
" transform="scale(0.015625)"/>
       </defs>
       <use xlink:href="#DejaVuSans-32"/>
       <use xlink:href="#DejaVuSans-30" transform="translate(63.623047 0)"/>
       <use xlink:href="#DejaVuSans-30" transform="translate(127.246094 0)"/>
      </g>
     </g>
    </g>
    <g id="ytick_4">
     <g id="line2d_9">
      <g>
       <use xlink:href="#mb40506863e" x="55.788667" y="216.057559" style="stroke: #000000; stroke-width: 0.8"/>
      </g>
     </g>
     <g id="text_5">
      <!-- 300 -->
      <g transform="translate(29.701167 219.856778) scale(0.1 -0.1)">
       <defs>
        <path id="DejaVuSans-33" d="M 2597 2516 
Q 3050 2419 3304 2112 
Q 3559 1806 3559 1356 
Q 3559 666 3084 287 
Q 2609 -91 1734 -91 
Q 1441 -91 1130 -33 
Q 819 25 488 141 
L 488 750 
Q 750 597 1062 519 
Q 1375 441 1716 441 
Q 2309 441 2620 675 
Q 2931 909 2931 1356 
Q 2931 1769 2642 2001 
Q 2353 2234 1838 2234 
L 1294 2234 
L 1294 2753 
L 1863 2753 
Q 2328 2753 2575 2939 
Q 2822 3125 2822 3475 
Q 2822 3834 2567 4026 
Q 2313 4219 1838 4219 
Q 1578 4219 1281 4162 
Q 984 4106 628 3988 
L 628 4550 
Q 988 4650 1302 4700 
Q 1616 4750 1894 4750 
Q 2613 4750 3031 4423 
Q 3450 4097 3450 3541 
Q 3450 3153 3228 2886 
Q 3006 2619 2597 2516 
z
" transform="scale(0.015625)"/>
       </defs>
       <use xlink:href="#DejaVuSans-33"/>
       <use xlink:href="#DejaVuSans-30" transform="translate(63.623047 0)"/>
       <use xlink:href="#DejaVuSans-30" transform="translate(127.246094 0)"/>
      </g>
     </g>
    </g>
    <g id="ytick_5">
     <g id="line2d_10">
      <g>
       <use xlink:href="#mb40506863e" x="55.788667" y="195.676745" style="stroke: #000000; stroke-width: 0.8"/>
      </g>
     </g>
     <g id="text_6">
      <!-- 400 -->
      <g transform="translate(29.701167 199.475964) scale(0.1 -0.1)">
       <defs>
        <path id="DejaVuSans-34" d="M 2419 4116 
L 825 1625 
L 2419 1625 
L 2419 4116 
z
M 2253 4666 
L 3047 4666 
L 3047 1625 
L 3713 1625 
L 3713 1100 
L 3047 1100 
L 3047 0 
L 2419 0 
L 2419 1100 
L 313 1100 
L 313 1709 
L 2253 4666 
z
" transform="scale(0.015625)"/>
       </defs>
       <use xlink:href="#DejaVuSans-34"/>
       <use xlink:href="#DejaVuSans-30" transform="translate(63.623047 0)"/>
       <use xlink:href="#DejaVuSans-30" transform="translate(127.246094 0)"/>
      </g>
     </g>
    </g>
    <g id="ytick_6">
     <g id="line2d_11">
      <g>
       <use xlink:href="#mb40506863e" x="55.788667" y="175.295931" style="stroke: #000000; stroke-width: 0.8"/>
      </g>
     </g>
     <g id="text_7">
      <!-- 500 -->
      <g transform="translate(29.701167 179.09515) scale(0.1 -0.1)">
       <defs>
        <path id="DejaVuSans-35" d="M 691 4666 
L 3169 4666 
L 3169 4134 
L 1269 4134 
L 1269 2991 
Q 1406 3038 1543 3061 
Q 1681 3084 1819 3084 
Q 2600 3084 3056 2656 
Q 3513 2228 3513 1497 
Q 3513 744 3044 326 
Q 2575 -91 1722 -91 
Q 1428 -91 1123 -41 
Q 819 9 494 109 
L 494 744 
Q 775 591 1075 516 
Q 1375 441 1709 441 
Q 2250 441 2565 725 
Q 2881 1009 2881 1497 
Q 2881 1984 2565 2268 
Q 2250 2553 1709 2553 
Q 1456 2553 1204 2497 
Q 953 2441 691 2322 
L 691 4666 
z
" transform="scale(0.015625)"/>
       </defs>
       <use xlink:href="#DejaVuSans-35"/>
       <use xlink:href="#DejaVuSans-30" transform="translate(63.623047 0)"/>
       <use xlink:href="#DejaVuSans-30" transform="translate(127.246094 0)"/>
      </g>
     </g>
    </g>
    <g id="ytick_7">
     <g id="line2d_12">
      <g>
       <use xlink:href="#mb40506863e" x="55.788667" y="154.915118" style="stroke: #000000; stroke-width: 0.8"/>
      </g>
     </g>
     <g id="text_8">
      <!-- 600 -->
      <g transform="translate(29.701167 158.714336) scale(0.1 -0.1)">
       <defs>
        <path id="DejaVuSans-36" d="M 2113 2584 
Q 1688 2584 1439 2293 
Q 1191 2003 1191 1497 
Q 1191 994 1439 701 
Q 1688 409 2113 409 
Q 2538 409 2786 701 
Q 3034 994 3034 1497 
Q 3034 2003 2786 2293 
Q 2538 2584 2113 2584 
z
M 3366 4563 
L 3366 3988 
Q 3128 4100 2886 4159 
Q 2644 4219 2406 4219 
Q 1781 4219 1451 3797 
Q 1122 3375 1075 2522 
Q 1259 2794 1537 2939 
Q 1816 3084 2150 3084 
Q 2853 3084 3261 2657 
Q 3669 2231 3669 1497 
Q 3669 778 3244 343 
Q 2819 -91 2113 -91 
Q 1303 -91 875 529 
Q 447 1150 447 2328 
Q 447 3434 972 4092 
Q 1497 4750 2381 4750 
Q 2619 4750 2861 4703 
Q 3103 4656 3366 4563 
z
" transform="scale(0.015625)"/>
       </defs>
       <use xlink:href="#DejaVuSans-36"/>
       <use xlink:href="#DejaVuSans-30" transform="translate(63.623047 0)"/>
       <use xlink:href="#DejaVuSans-30" transform="translate(127.246094 0)"/>
      </g>
     </g>
    </g>
    <g id="ytick_8">
     <g id="line2d_13">
      <g>
       <use xlink:href="#mb40506863e" x="55.788667" y="134.534304" style="stroke: #000000; stroke-width: 0.8"/>
      </g>
     </g>
     <g id="text_9">
      <!-- 700 -->
      <g transform="translate(29.701167 138.333523) scale(0.1 -0.1)">
       <defs>
        <path id="DejaVuSans-37" d="M 525 4666 
L 3525 4666 
L 3525 4397 
L 1831 0 
L 1172 0 
L 2766 4134 
L 525 4134 
L 525 4666 
z
" transform="scale(0.015625)"/>
       </defs>
       <use xlink:href="#DejaVuSans-37"/>
       <use xlink:href="#DejaVuSans-30" transform="translate(63.623047 0)"/>
       <use xlink:href="#DejaVuSans-30" transform="translate(127.246094 0)"/>
      </g>
     </g>
    </g>
    <g id="ytick_9">
     <g id="line2d_14">
      <g>
       <use xlink:href="#mb40506863e" x="55.788667" y="114.15349" style="stroke: #000000; stroke-width: 0.8"/>
      </g>
     </g>
     <g id="text_10">
      <!-- 800 -->
      <g transform="translate(29.701167 117.952709) scale(0.1 -0.1)">
       <defs>
        <path id="DejaVuSans-38" d="M 2034 2216 
Q 1584 2216 1326 1975 
Q 1069 1734 1069 1313 
Q 1069 891 1326 650 
Q 1584 409 2034 409 
Q 2484 409 2743 651 
Q 3003 894 3003 1313 
Q 3003 1734 2745 1975 
Q 2488 2216 2034 2216 
z
M 1403 2484 
Q 997 2584 770 2862 
Q 544 3141 544 3541 
Q 544 4100 942 4425 
Q 1341 4750 2034 4750 
Q 2731 4750 3128 4425 
Q 3525 4100 3525 3541 
Q 3525 3141 3298 2862 
Q 3072 2584 2669 2484 
Q 3125 2378 3379 2068 
Q 3634 1759 3634 1313 
Q 3634 634 3220 271 
Q 2806 -91 2034 -91 
Q 1263 -91 848 271 
Q 434 634 434 1313 
Q 434 1759 690 2068 
Q 947 2378 1403 2484 
z
M 1172 3481 
Q 1172 3119 1398 2916 
Q 1625 2713 2034 2713 
Q 2441 2713 2670 2916 
Q 2900 3119 2900 3481 
Q 2900 3844 2670 4047 
Q 2441 4250 2034 4250 
Q 1625 4250 1398 4047 
Q 1172 3844 1172 3481 
z
" transform="scale(0.015625)"/>
       </defs>
       <use xlink:href="#DejaVuSans-38"/>
       <use xlink:href="#DejaVuSans-30" transform="translate(63.623047 0)"/>
       <use xlink:href="#DejaVuSans-30" transform="translate(127.246094 0)"/>
      </g>
     </g>
    </g>
    <g id="text_11">
     <!-- Wavenumber, cm$^{-1}$ -->
     <g transform="translate(23.205542 255.316745) rotate(-90) scale(0.12 -0.12)">
      <defs>
       <path id="DejaVuSans-57" d="M 213 4666 
L 850 4666 
L 1831 722 
L 2809 4666 
L 3519 4666 
L 4500 722 
L 5478 4666 
L 6119 4666 
L 4947 0 
L 4153 0 
L 3169 4050 
L 2175 0 
L 1381 0 
L 213 4666 
z
" transform="scale(0.015625)"/>
       <path id="DejaVuSans-76" d="M 191 3500 
L 800 3500 
L 1894 563 
L 2988 3500 
L 3597 3500 
L 2284 0 
L 1503 0 
L 191 3500 
z
" transform="scale(0.015625)"/>
       <path id="DejaVuSans-6e" d="M 3513 2113 
L 3513 0 
L 2938 0 
L 2938 2094 
Q 2938 2591 2744 2837 
Q 2550 3084 2163 3084 
Q 1697 3084 1428 2787 
Q 1159 2491 1159 1978 
L 1159 0 
L 581 0 
L 581 3500 
L 1159 3500 
L 1159 2956 
Q 1366 3272 1645 3428 
Q 1925 3584 2291 3584 
Q 2894 3584 3203 3211 
Q 3513 2838 3513 2113 
z
" transform="scale(0.015625)"/>
       <path id="DejaVuSans-75" d="M 544 1381 
L 544 3500 
L 1119 3500 
L 1119 1403 
Q 1119 906 1312 657 
Q 1506 409 1894 409 
Q 2359 409 2629 706 
Q 2900 1003 2900 1516 
L 2900 3500 
L 3475 3500 
L 3475 0 
L 2900 0 
L 2900 538 
Q 2691 219 2414 64 
Q 2138 -91 1772 -91 
Q 1169 -91 856 284 
Q 544 659 544 1381 
z
M 1991 3584 
L 1991 3584 
z
" transform="scale(0.015625)"/>
       <path id="DejaVuSans-62" d="M 3116 1747 
Q 3116 2381 2855 2742 
Q 2594 3103 2138 3103 
Q 1681 3103 1420 2742 
Q 1159 2381 1159 1747 
Q 1159 1113 1420 752 
Q 1681 391 2138 391 
Q 2594 391 2855 752 
Q 3116 1113 3116 1747 
z
M 1159 2969 
Q 1341 3281 1617 3432 
Q 1894 3584 2278 3584 
Q 2916 3584 3314 3078 
Q 3713 2572 3713 1747 
Q 3713 922 3314 415 
Q 2916 -91 2278 -91 
Q 1894 -91 1617 61 
Q 1341 213 1159 525 
L 1159 0 
L 581 0 
L 581 4863 
L 1159 4863 
L 1159 2969 
z
" transform="scale(0.015625)"/>
       <path id="DejaVuSans-2c" d="M 750 794 
L 1409 794 
L 1409 256 
L 897 -744 
L 494 -744 
L 750 256 
L 750 794 
z
" transform="scale(0.015625)"/>
       <path id="DejaVuSans-2212" d="M 678 2272 
L 4684 2272 
L 4684 1741 
L 678 1741 
L 678 2272 
z
" transform="scale(0.015625)"/>
      </defs>
      <use xlink:href="#DejaVuSans-57" transform="translate(0 0.684375)"/>
      <use xlink:href="#DejaVuSans-61" transform="translate(98.876953 0.684375)"/>
      <use xlink:href="#DejaVuSans-76" transform="translate(160.15625 0.684375)"/>
      <use xlink:href="#DejaVuSans-65" transform="translate(219.335938 0.684375)"/>
      <use xlink:href="#DejaVuSans-6e" transform="translate(280.859375 0.684375)"/>
      <use xlink:href="#DejaVuSans-75" transform="translate(344.238281 0.684375)"/>
      <use xlink:href="#DejaVuSans-6d" transform="translate(407.617188 0.684375)"/>
      <use xlink:href="#DejaVuSans-62" transform="translate(505.029297 0.684375)"/>
      <use xlink:href="#DejaVuSans-65" transform="translate(568.505859 0.684375)"/>
      <use xlink:href="#DejaVuSans-72" transform="translate(630.029297 0.684375)"/>
      <use xlink:href="#DejaVuSans-2c" transform="translate(671.142578 0.684375)"/>
      <use xlink:href="#DejaVuSans-20" transform="translate(702.929688 0.684375)"/>
      <use xlink:href="#DejaVuSans-63" transform="translate(734.716797 0.684375)"/>
      <use xlink:href="#DejaVuSans-6d" transform="translate(789.697266 0.684375)"/>
      <use xlink:href="#DejaVuSans-2212" transform="translate(888.066406 38.965625) scale(0.7)"/>
      <use xlink:href="#DejaVuSans-31" transform="translate(946.71875 38.965625) scale(0.7)"/>
     </g>
    </g>
   </g>
   <g id="line2d_15">
    <path d="M 65.853965 280.056972 
L 65.95464 273.414582 
L 66.270817 270.617786 
L 66.591169 269.568987 
L 67.037144 268.869788 
L 68.214711 267.47139 
L 68.838058 266.422592 
L 69.218377 266.072992 
L 69.773319 265.723393 
L 71.519704 265.024194 
L 74.686265 263.975395 
L 76.922031 262.926597 
L 77.465848 262.576997 
L 77.720861 262.227398 
L 77.663119 261.877798 
L 77.244517 261.178599 
L 77.205758 260.829 
L 77.336899 260.4794 
L 78.019056 259.780201 
L 79.304015 258.731403 
L 79.392256 258.381803 
L 79.24838 258.032204 
L 78.046962 256.633806 
L 78.096257 256.284206 
L 78.538894 255.934607 
L 80.507979 255.235408 
L 82.357923 254.536209 
L 83.735656 253.83701 
L 84.072565 253.48741 
L 83.698119 253.137811 
L 81.309134 252.438612 
L 80.918192 252.089012 
L 82.340428 251.739413 
L 86.132155 251.389813 
L 92.486836 251.040214 
L 111.482436 250.341015 
L 129.260345 249.641816 
L 133.472515 249.292216 
L 134.602077 248.942617 
L 134.341494 248.593017 
L 134.38228 248.243418 
L 135.435404 247.893818 
L 138.394772 247.194619 
L 138.463911 246.84502 
L 137.16311 246.49542 
L 133.195192 245.796221 
L 131.907455 245.446622 
L 129.260479 244.397823 
L 127.548731 244.048224 
L 124.982681 243.698624 
L 117.056677 242.999425 
L 108.244671 242.300226 
L 102.561713 241.601027 
L 101.329783 241.251428 
L 101.059588 240.901829 
L 101.61583 240.20263 
L 101.096303 239.85303 
L 99.568265 239.503431 
L 95.483892 238.804232 
L 94.169149 238.454632 
L 93.593468 238.105033 
L 93.660945 237.755433 
L 94.392489 237.405834 
L 95.967431 237.056234 
L 101.523874 236.357035 
L 104.363243 236.007436 
L 106.124493 235.657836 
L 106.43803 235.308237 
L 105.614598 234.958637 
L 100.533714 233.560239 
L 100.145352 233.21064 
L 100.45377 232.86104 
L 102.743404 231.812242 
L 103.017673 231.462642 
L 102.886109 231.113043 
L 102.387016 230.763443 
L 101.039828 230.064244 
L 100.74242 229.714645 
L 100.831393 229.015446 
L 100.261568 228.665846 
L 98.690086 228.316247 
L 90.99684 227.267448 
L 89.682979 226.917849 
L 89.823902 226.568249 
L 91.368607 226.21865 
L 96.789745 225.519451 
L 102.433563 224.820252 
L 104.547216 224.470652 
L 105.575725 224.121053 
L 105.311913 223.771453 
L 102.877919 223.072254 
L 102.382622 222.722655 
L 103.269938 222.373055 
L 106.009264 222.023456 
L 110.966838 221.673856 
L 132.183813 220.625058 
L 135.658975 220.275458 
L 136.421503 219.925859 
L 136.405993 219.576259 
L 137.813991 219.22666 
L 141.713342 218.87706 
L 158.333412 217.828262 
L 160.206882 217.478662 
L 159.405193 217.129063 
L 156.736835 216.779463 
L 150.167909 216.080264 
L 149.712782 215.730665 
L 153.953976 215.381065 
L 179.318918 214.332267 
L 179.281952 213.982667 
L 173.384799 213.633068 
L 152.974812 212.933869 
L 132.001481 212.23467 
L 118.413974 211.535471 
L 114.697457 211.185871 
L 110.662443 210.486672 
L 107.262529 209.437874 
L 105.417216 208.738675 
L 103.017469 207.340277 
L 102.296022 206.990677 
L 101.846508 206.641078 
L 101.731392 206.291478 
L 101.752395 205.941879 
L 101.617792 205.592279 
L 100.802428 204.89308 
L 100.65903 204.543481 
L 100.910207 204.193882 
L 102.884845 202.795484 
L 104.851856 202.096285 
L 105.948466 201.746685 
L 106.627918 201.397086 
L 106.424985 201.047486 
L 105.229862 200.697887 
L 100.125289 199.649088 
L 97.041457 198.949889 
L 92.286876 198.25069 
L 87.08263 197.551491 
L 83.511561 196.852292 
L 81.557817 196.153093 
L 80.443309 195.453894 
L 79.361447 194.754695 
L 78.331888 194.405096 
L 75.021912 193.705897 
L 71.917784 193.006698 
L 71.222256 192.657098 
L 71.217727 192.307499 
L 71.789398 191.957899 
L 73.930081 191.2587 
L 76.253214 190.559501 
L 77.103837 190.209902 
L 77.589425 189.860302 
L 77.68455 189.510703 
L 77.235435 188.461904 
L 77.548898 188.112305 
L 78.955126 187.413106 
L 80.247494 186.713907 
L 80.819221 186.014708 
L 81.260441 184.61631 
L 81.246714 184.26671 
L 81.035981 183.917111 
L 80.561728 183.567511 
L 79.804821 183.217912 
L 77.412722 182.518713 
L 73.859901 181.819514 
L 68.536745 180.770715 
L 67.398653 180.421116 
L 66.643916 180.071516 
L 66.206049 179.721917 
L 65.896467 179.022718 
L 65.852872 177.62432 
L 65.950474 167.835534 
L 66.22335 165.038738 
L 66.555392 162.591542 
L 67.036666 160.843544 
L 67.122132 158.046748 
L 66.40074 156.64835 
L 66.394883 155.949151 
L 66.734773 155.249952 
L 67.928037 153.851554 
L 68.097299 153.152355 
L 68.101485 152.453156 
L 67.878337 151.054758 
L 68.364152 149.65636 
L 68.518504 149.306761 
L 68.851212 148.957161 
L 69.502832 148.607562 
L 71.881135 147.908363 
L 74.648049 147.209164 
L 75.607175 146.859564 
L 76.153806 146.509965 
L 76.351488 146.160365 
L 76.331136 144.761967 
L 77.065285 144.062768 
L 78.200789 143.363569 
L 79.039442 143.01397 
L 81.757538 142.314771 
L 85.264359 141.615572 
L 86.211307 141.265972 
L 85.863611 140.916373 
L 84.035546 140.566773 
L 77.206785 139.867574 
L 70.314771 139.168375 
L 68.145978 138.818776 
L 66.883369 138.469176 
L 66.261899 138.119577 
L 66.005331 137.769977 
L 65.907234 137.070778 
L 66.053337 134.973181 
L 66.367994 133.225184 
L 67.259657 130.078789 
L 68.097662 129.02999 
L 69.258374 127.631592 
L 69.587067 126.932393 
L 69.890562 126.233194 
L 70.898724 125.184396 
L 70.934632 124.834796 
L 70.642493 124.135597 
L 70.408504 123.785998 
L 70.013069 123.436398 
L 67.20628 121.688401 
L 66.716171 120.989202 
L 66.699122 120.639602 
L 66.954335 120.290003 
L 67.554407 119.940403 
L 70.52054 118.891605 
L 70.886627 118.542005 
L 70.517299 118.192406 
L 66.918635 116.794008 
L 66.606242 116.444408 
L 66.435431 115.745209 
L 66.495788 114.696411 
L 66.852593 112.249214 
L 66.034267 110.501217 
L 66.073212 109.452418 
L 66.163084 107.704421 
L 65.934431 105.606824 
L 65.934431 105.606824 
" clip-path="url(#p05c0adc6cd)" style="fill: none; stroke: #0096f1; stroke-linecap: square"/>
   </g>
   <g id="line2d_16">
    <path d="M 65.908361 277.225241 
L 65.859061 273.212209 
L 66.050858 270.433956 
L 66.182157 269.199176 
L 66.127897 268.273092 
L 66.062043 267.347008 
L 66.312479 266.729618 
L 67.029115 265.494839 
L 67.016347 265.186144 
L 66.616774 264.26006 
L 66.699 263.64267 
L 67.59522 261.790501 
L 67.697748 260.864417 
L 68.004103 260.247027 
L 68.637656 259.320943 
L 68.665768 259.012248 
L 68.344102 258.394859 
L 68.195327 258.086164 
L 68.426419 257.777469 
L 69.417302 257.468774 
L 75.311084 256.54269 
L 75.786503 256.233995 
L 75.058658 255.9253 
L 72.866487 255.307911 
L 72.383273 254.999216 
L 72.023899 254.073132 
L 71.373501 253.764437 
L 68.495968 252.838352 
L 68.190957 252.529658 
L 68.382725 252.220963 
L 69.02506 251.912268 
L 70.111855 251.603573 
L 71.766232 251.294878 
L 74.383714 250.986184 
L 78.765367 250.677489 
L 94.741012 250.060099 
L 102.90816 249.751404 
L 106.054671 249.44271 
L 102.313941 249.134015 
L 80.451943 248.20793 
L 78.068723 247.899236 
L 77.660251 247.590541 
L 78.360343 247.281846 
L 79.899306 246.973151 
L 86.32993 246.047067 
L 85.984518 245.738372 
L 77.804442 244.503593 
L 78.724273 244.194898 
L 81.151107 243.886203 
L 93.682235 242.651424 
L 96.054081 242.342729 
L 99.367404 242.034035 
L 108.500429 241.416645 
L 108.401949 241.10795 
L 102.011206 240.799255 
L 81.732709 240.181866 
L 74.818388 239.873171 
L 71.050632 239.564476 
L 69.492396 239.255781 
L 69.494272 238.947087 
L 70.834127 238.638392 
L 76.520668 238.021002 
L 84.852946 237.403613 
L 100.066405 236.477528 
L 99.974086 236.168833 
L 93.228022 235.551444 
L 91.919237 235.242749 
L 92.733951 234.934054 
L 93.904187 234.62536 
L 94.565636 234.00797 
L 95.718627 233.699275 
L 99.091162 233.081886 
L 99.273206 232.773191 
L 98.429797 232.464496 
L 96.919162 232.155801 
L 94.510426 231.847106 
L 84.47558 230.921022 
L 84.059122 230.612327 
L 87.10954 230.303632 
L 108.855724 229.377548 
L 109.808849 229.068853 
L 101.494606 228.451464 
L 85.925557 227.216684 
L 86.052061 226.90799 
L 90.179891 226.599295 
L 99.88499 225.981905 
L 100.667683 225.673211 
L 98.313829 225.055821 
L 98.188913 224.747126 
L 99.12776 224.438431 
L 105.261815 223.512347 
L 105.818574 223.203652 
L 105.328866 222.894957 
L 105.508064 222.586263 
L 108.243185 222.277568 
L 114.219786 221.968873 
L 148.853905 220.734094 
L 159.857668 220.425399 
L 177.591716 220.116704 
L 255.396577 219.19062 
L 267.135848 218.881925 
L 265.562168 218.57323 
L 253.609435 218.264535 
L 194.743535 217.338451 
L 136.985497 216.412367 
L 127.072512 216.103672 
L 118.472346 215.486282 
L 103.327531 214.251503 
L 99.282808 213.634114 
L 100.672227 213.325419 
L 114.37479 212.399334 
L 111.689578 212.09064 
L 103.982968 211.47325 
L 100.144494 210.547166 
L 101.790117 210.238471 
L 108.265637 209.929776 
L 124.658515 209.312386 
L 124.701243 209.003692 
L 117.780353 208.694997 
L 99.602227 208.077607 
L 95.935648 207.768912 
L 98.121032 207.460218 
L 116.677078 206.534133 
L 116.06766 206.225438 
L 111.690107 205.916744 
L 95.270625 204.990659 
L 94.059552 204.681965 
L 95.347365 204.37327 
L 97.216723 204.064575 
L 98.00518 203.75588 
L 97.267819 203.447185 
L 95.119836 203.138491 
L 85.570011 202.212406 
L 84.99839 201.903711 
L 86.27449 201.286322 
L 85.924397 200.977627 
L 84.321406 200.668932 
L 79.605914 200.051543 
L 78.590615 199.742848 
L 78.784085 199.434153 
L 79.243463 199.125458 
L 79.135539 198.816763 
L 77.399374 198.199374 
L 74.611015 197.273289 
L 67.647693 196.03851 
L 66.922933 195.729816 
L 66.578733 195.421121 
L 66.563413 195.112426 
L 67.017045 194.803731 
L 68.089477 194.495036 
L 70.9705 193.877647 
L 71.404718 193.568952 
L 70.749724 193.260257 
L 68.804491 192.642868 
L 68.58989 192.334173 
L 68.946408 191.716783 
L 69.767633 191.099394 
L 70.170695 190.790699 
L 70.171562 190.482004 
L 69.864731 190.173309 
L 69.856883 189.864614 
L 70.694581 189.55592 
L 73.643927 188.93853 
L 75.811477 188.32114 
L 78.855477 188.012446 
L 95.697298 187.086361 
L 96.324222 186.777666 
L 86.684937 185.542887 
L 85.306314 185.234193 
L 84.467466 184.925498 
L 84.449492 184.616803 
L 85.661532 184.308108 
L 88.81648 183.999413 
L 99.437787 183.382024 
L 102.215679 183.073329 
L 100.371347 182.764634 
L 81.123381 181.83855 
L 78.980223 181.529855 
L 80.368104 181.22116 
L 85.218352 180.603771 
L 85.50817 180.295076 
L 82.780488 179.060297 
L 80.867989 178.751602 
L 75.691882 178.134212 
L 74.092138 177.825517 
L 73.829391 177.516823 
L 74.385437 177.208128 
L 74.675946 176.899433 
L 74.108346 176.590738 
L 73.15209 176.282044 
L 72.678971 175.973349 
L 72.976062 175.664654 
L 73.584646 175.355959 
L 73.821999 175.047264 
L 73.34548 174.73857 
L 71.637826 174.12118 
L 70.291581 173.195096 
L 69.653106 172.886401 
L 69.591819 172.577706 
L 70.356044 172.269011 
L 75.263186 171.034232 
L 75.371485 170.725537 
L 74.457128 170.416842 
L 71.971393 169.799453 
L 72.242283 169.490758 
L 76.251173 168.564674 
L 75.68659 168.255979 
L 68.343675 167.0212 
L 68.300459 166.712505 
L 70.510655 165.169031 
L 70.868449 164.551641 
L 71.150721 163.625557 
L 71.159923 163.316862 
L 71.417517 163.008167 
L 72.35026 162.699473 
L 76.447221 162.082083 
L 80.621791 161.464693 
L 82.069166 161.155999 
L 82.959548 160.847304 
L 82.960396 160.538609 
L 81.803519 160.229914 
L 77.648186 159.612525 
L 76.514622 159.30383 
L 76.552894 158.995135 
L 76.963125 158.68644 
L 76.725265 158.377745 
L 75.529737 158.069051 
L 72.226704 157.451661 
L 71.100377 157.142966 
L 70.743845 156.834271 
L 71.502614 156.525577 
L 73.617514 156.216882 
L 81.499685 155.599492 
L 102.592001 154.364713 
L 104.382907 154.056018 
L 103.550696 153.747324 
L 98.400107 153.129934 
L 96.956677 152.821239 
L 97.342092 152.512544 
L 101.065813 151.895155 
L 100.892741 151.58646 
L 97.143721 151.277765 
L 70.070747 150.042986 
L 67.582739 149.734291 
L 66.51245 149.425596 
L 66.140266 149.116902 
L 66.071587 148.808207 
L 66.281029 147.573428 
L 66.278029 146.647343 
L 66.233768 146.029954 
L 66.089094 145.412564 
L 66.323004 144.795175 
L 66.608814 144.177785 
L 66.404717 143.251701 
L 66.817951 142.325616 
L 66.704199 142.016921 
L 66.236045 141.399532 
L 66.15295 141.090837 
L 66.338922 140.473447 
L 66.827104 139.547363 
L 67.452231 138.929973 
L 67.545757 138.621279 
L 67.176746 138.003889 
L 66.498096 136.76911 
L 66.475614 136.460415 
L 66.679663 136.15172 
L 68.779834 134.299552 
L 68.47787 133.990857 
L 67.618206 133.373467 
L 67.575868 133.064772 
L 67.856152 132.756078 
L 68.415515 132.447383 
L 71.434272 131.212604 
L 71.309789 130.903909 
L 70.294536 130.286519 
L 70.305183 129.977824 
L 71.097624 129.66913 
L 75.171241 128.743045 
L 75.33434 128.43435 
L 75.04084 127.816961 
L 75.08833 127.508266 
L 74.96579 127.199571 
L 74.471386 126.890877 
L 73.095544 126.273487 
L 72.804043 125.964792 
L 72.715566 125.656097 
L 72.494702 125.347403 
L 71.329296 124.730013 
L 68.967794 123.495234 
L 68.629863 123.186539 
L 68.629863 123.186539 
" clip-path="url(#p05c0adc6cd)" style="fill: none; stroke: #668080; stroke-linecap: square"/>
   </g>
   <g id="patch_3">
    <path d="M 55.788667 277.2 
L 55.788667 114.15349 
" style="fill: none; stroke: #000000; stroke-width: 0.8; stroke-linejoin: miter; stroke-linecap: square"/>
   </g>
   <g id="patch_4">
    <path d="M 277.2 277.2 
L 277.2 114.15349 
" style="fill: none; stroke: #000000; stroke-width: 0.8; stroke-linejoin: miter; stroke-linecap: square"/>
   </g>
   <g id="patch_5">
    <path d="M 55.788667 277.2 
L 277.2 277.2 
" style="fill: none; stroke: #000000; stroke-width: 0.8; stroke-linejoin: miter; stroke-linecap: square"/>
   </g>
   <g id="patch_6">
    <path d="M 55.788667 114.15349 
L 277.2 114.15349 
" style="fill: none; stroke: #000000; stroke-width: 0.8; stroke-linejoin: miter; stroke-linecap: square"/>
   </g>
   <g id="legend_1">
    <g id="line2d_17">
     <path d="M 173.1 127.251928 
L 183.1 127.251928 
L 193.1 127.251928 
" style="fill: none; stroke: #0096f1; stroke-linecap: square"/>
    </g>
    <g id="text_12">
     <!-- BaSn$_{7/8}$Y$_{1/8}$O$_3$ -->
     <g transform="translate(201.1 130.751928) scale(0.1 -0.1)">
      <defs>
       <path id="DejaVuSans-42" d="M 1259 2228 
L 1259 519 
L 2272 519 
Q 2781 519 3026 730 
Q 3272 941 3272 1375 
Q 3272 1813 3026 2020 
Q 2781 2228 2272 2228 
L 1259 2228 
z
M 1259 4147 
L 1259 2741 
L 2194 2741 
Q 2656 2741 2882 2914 
Q 3109 3088 3109 3444 
Q 3109 3797 2882 3972 
Q 2656 4147 2194 4147 
L 1259 4147 
z
M 628 4666 
L 2241 4666 
Q 2963 4666 3353 4366 
Q 3744 4066 3744 3513 
Q 3744 3084 3544 2831 
Q 3344 2578 2956 2516 
Q 3422 2416 3680 2098 
Q 3938 1781 3938 1306 
Q 3938 681 3513 340 
Q 3088 0 2303 0 
L 628 0 
L 628 4666 
z
" transform="scale(0.015625)"/>
       <path id="DejaVuSans-2f" d="M 1625 4666 
L 2156 4666 
L 531 -594 
L 0 -594 
L 1625 4666 
z
" transform="scale(0.015625)"/>
       <path id="DejaVuSans-59" d="M -13 4666 
L 666 4666 
L 1959 2747 
L 3244 4666 
L 3922 4666 
L 2272 2222 
L 2272 0 
L 1638 0 
L 1638 2222 
L -13 4666 
z
" transform="scale(0.015625)"/>
      </defs>
      <use xlink:href="#DejaVuSans-42" transform="translate(0 0.78125)"/>
      <use xlink:href="#DejaVuSans-61" transform="translate(68.603516 0.78125)"/>
      <use xlink:href="#DejaVuSans-53" transform="translate(129.882812 0.78125)"/>
      <use xlink:href="#DejaVuSans-6e" transform="translate(193.359375 0.78125)"/>
      <use xlink:href="#DejaVuSans-37" transform="translate(257.695312 -15.625) scale(0.7)"/>
      <use xlink:href="#DejaVuSans-2f" transform="translate(302.231445 -15.625) scale(0.7)"/>
      <use xlink:href="#DejaVuSans-38" transform="translate(322.31543 -15.625) scale(0.7)"/>
      <use xlink:href="#DejaVuSans-59" transform="translate(369.585938 0.78125)"/>
      <use xlink:href="#DejaVuSans-31" transform="translate(431.626953 -15.625) scale(0.7)"/>
      <use xlink:href="#DejaVuSans-2f" transform="translate(476.163086 -15.625) scale(0.7)"/>
      <use xlink:href="#DejaVuSans-38" transform="translate(496.24707 -15.625) scale(0.7)"/>
      <use xlink:href="#DejaVuSans-4f" transform="translate(543.517578 0.78125)"/>
      <use xlink:href="#DejaVuSans-33" transform="translate(623.185547 -15.625) scale(0.7)"/>
     </g>
    </g>
    <g id="line2d_18">
     <path d="M 173.1 142.150365 
L 183.1 142.150365 
L 193.1 142.150365 
" style="fill: none; stroke: #668080; stroke-linecap: square"/>
    </g>
    <g id="text_13">
     <!-- BaSnO$_3$ -->
     <g transform="translate(201.1 145.650365) scale(0.1 -0.1)">
      <use xlink:href="#DejaVuSans-42" transform="translate(0 0.78125)"/>
      <use xlink:href="#DejaVuSans-61" transform="translate(68.603516 0.78125)"/>
      <use xlink:href="#DejaVuSans-53" transform="translate(129.882812 0.78125)"/>
      <use xlink:href="#DejaVuSans-6e" transform="translate(193.359375 0.78125)"/>
      <use xlink:href="#DejaVuSans-4f" transform="translate(256.738281 0.78125)"/>
      <use xlink:href="#DejaVuSans-33" transform="translate(336.40625 -15.625) scale(0.7)"/>
     </g>
    </g>
   </g>
  </g>
 </g>
 <defs>
  <clipPath id="p05c0adc6cd">
   <rect x="55.788667" y="114.15349" width="221.411333" height="163.04651"/>
  </clipPath>
 </defs>
</svg>
